<svg width="650" height="650" viewBox="0 0 861 861" fill="none" xmlns="http://www.w3.org/2000/svg">
            <path d="M275.706 499.006L245.857 498.93L212.77 556.07L146.604 441.782L113.517 498.93H96.9775H69.4115" stroke="url(#paint0_linear_2_29)" stroke-width="15.2721" stroke-linecap="round" stroke-linejoin="round" />
            <path d="M150.506 279.639H181.432V413.269H150.506V279.639ZM89.7997 413.269H58.8738V279.639H89.7997V413.269ZM152.797 358.481H87.5089V332.328H152.797V358.481Z" fill="white" />
            <path d="M261.977 414.797C250.268 414.797 239.99 412.506 231.142 407.924C222.3 403.343 215.461 397.073 210.624 389.117C205.788 381.165 203.37 372.098 203.37 361.917C203.37 351.608 205.755 342.476 210.525 334.519C215.3 326.567 221.824 320.331 230.096 315.811C238.369 311.295 247.723 309.038 258.159 309.038C268.213 309.038 277.279 311.168 285.358 315.429C293.442 319.695 299.839 325.804 304.548 333.755C309.256 341.712 311.611 351.227 311.611 362.299C311.611 363.444 311.547 364.747 311.42 366.209C311.293 367.675 311.165 369.044 311.038 370.317H227.615V352.945H295.384L283.93 358.099C283.93 352.754 282.849 348.109 280.685 344.163C278.521 340.218 275.531 337.131 271.713 334.901C267.895 332.676 263.44 331.564 258.35 331.564C253.259 331.564 248.771 332.676 244.887 334.901C241.008 337.131 237.987 340.249 235.823 344.255C233.66 348.266 232.578 353.008 232.578 358.481V363.062C232.578 368.662 233.818 373.593 236.297 377.853C238.781 382.119 242.281 385.365 246.796 387.589C251.317 389.819 256.632 390.934 262.74 390.934C268.213 390.934 273.016 390.107 277.15 388.452C281.288 386.798 285.076 384.316 288.512 381.007L304.357 398.188C299.648 403.533 293.73 407.636 286.603 410.497C279.476 413.364 271.267 414.797 261.977 414.797Z" fill="white" />
            <path d="M391.598 413.269V393.225L389.689 388.834V352.945C389.689 346.581 387.75 341.618 383.871 338.054C379.986 334.491 374.035 332.709 366.018 332.709C360.545 332.709 355.169 333.567 349.89 335.283C344.606 337.003 340.119 339.327 336.428 342.254L325.738 321.446C331.337 317.501 338.082 314.446 345.973 312.283C353.864 310.119 361.881 309.038 370.026 309.038C385.68 309.038 397.834 312.728 406.488 320.11C415.143 327.491 419.47 339.009 419.47 354.663V413.269H391.598ZM360.291 414.797C352.273 414.797 345.4 413.427 339.673 410.688C333.946 407.955 329.556 404.233 326.501 399.524C323.447 394.816 321.92 389.534 321.92 383.68C321.92 377.571 323.416 372.226 326.41 367.644C329.398 363.062 334.137 359.466 340.628 356.854C347.118 354.248 355.582 352.945 366.018 352.945H393.316V370.317H369.263C362.263 370.317 357.46 371.462 354.854 373.753C352.242 376.044 350.936 378.907 350.936 382.343C350.936 386.161 352.433 389.183 355.426 391.407C358.415 393.637 362.518 394.752 367.736 394.752C372.699 394.752 377.153 393.573 381.099 391.216C385.044 388.865 387.908 385.398 389.689 380.816L394.271 394.561C392.107 401.179 388.162 406.206 382.435 409.642C376.708 413.078 369.327 414.797 360.291 414.797Z" fill="white" />
            <path d="M446.379 413.269V271.621H476.16V413.269H446.379Z" fill="white" />
            <path d="M553.283 414.796C541.193 414.796 531.775 411.709 525.03 405.534C518.285 399.364 514.912 390.17 514.912 377.952V287.847H544.693V377.571C544.693 381.898 545.838 385.237 548.129 387.589C550.42 389.946 553.538 391.125 557.483 391.125C562.192 391.125 566.201 389.852 569.51 387.307L577.528 408.306C574.473 410.469 570.813 412.091 566.547 413.17C562.286 414.254 557.865 414.796 553.283 414.796ZM499.068 335.763V312.855H570.274V335.763H499.068Z" fill="white" />
            <path d="M656.744 309.038C664.889 309.038 672.174 310.659 678.598 313.902C685.028 317.15 690.088 322.113 693.779 328.792C697.469 335.476 699.315 344.036 699.315 354.472V413.269H669.534V359.054C669.534 350.781 667.719 344.672 664.09 340.727C660.465 336.782 655.344 334.809 648.726 334.809C644.017 334.809 639.784 335.794 636.027 337.764C632.276 339.74 629.348 342.763 627.246 346.836C625.149 350.908 624.1 356.126 624.1 362.49V413.269H594.319V271.621H624.1V339.009L617.418 330.418C621.109 323.546 626.391 318.264 633.263 314.574C640.136 310.883 647.963 309.038 656.744 309.038Z" fill="white" />
            <path d="M330.838 563.325L273.186 429.694H306.594L356.992 548.053H337.329L388.49 429.694H419.225L361.383 563.325H330.838Z" fill="white" />
            <path d="M483.559 563.325V543.281L481.65 538.89V503.001C481.65 496.637 479.708 491.674 475.824 488.11C471.945 484.547 465.996 482.765 457.978 482.765C452.506 482.765 447.127 483.623 441.843 485.338C436.564 487.059 432.079 489.383 428.389 492.31L417.698 471.502C423.298 467.557 430.043 464.502 437.934 462.339C445.824 460.175 453.842 459.093 461.987 459.093C477.641 459.093 489.795 462.784 498.449 470.166C507.103 477.547 511.43 489.065 511.43 504.719V563.325H483.559ZM452.251 564.852C444.233 564.852 437.361 563.483 431.634 560.744C425.907 558.01 421.516 554.289 418.462 549.58C415.407 544.871 413.88 539.59 413.88 533.736C413.88 527.627 415.374 522.281 418.363 517.7C421.356 513.118 426.098 509.522 432.588 506.91C439.079 504.304 447.542 503.001 457.978 503.001H485.277V520.372H461.224C454.224 520.372 449.418 521.518 446.807 523.809C444.2 526.1 442.897 528.963 442.897 532.399C442.897 536.217 444.391 539.239 447.379 541.463C450.373 543.693 454.478 544.808 459.696 544.808C464.66 544.808 469.114 543.629 473.059 541.272C477.005 538.92 479.868 535.454 481.65 530.872L486.232 544.617C484.068 551.235 480.123 556.262 474.396 559.698C468.669 563.134 461.287 564.852 452.251 564.852Z" fill="white" />
            <path d="M581.682 564.852C573.155 564.852 565.549 563.197 558.865 559.888C552.186 556.579 547.002 551.519 543.311 544.708C539.62 537.902 537.775 529.217 537.775 518.654V460.62H567.555V514.263C567.555 522.79 569.367 529.057 572.992 533.063C576.622 537.075 581.745 539.08 588.363 539.08C592.945 539.08 597.018 538.093 600.581 536.117C604.144 534.147 606.944 531.093 608.981 526.954C611.017 522.821 612.035 517.636 612.035 511.4V460.62H641.816V563.325H613.562V535.071L618.717 543.28C615.28 550.407 610.22 555.783 603.536 559.407C596.857 563.037 589.572 564.852 581.682 564.852Z" fill="white" />
            <path d="M669.496 563.325L669.565 410.222L699.277 412.658V563.325H669.496Z" fill="white" />
            <path d="M776.4 564.852C764.31 564.852 754.892 561.765 748.147 555.59C741.402 549.42 738.029 540.226 738.029 528.008V437.903H767.81V527.626C767.81 531.954 768.955 535.293 771.246 537.645C773.537 540.002 776.655 541.18 780.6 541.18C785.309 541.18 789.318 539.908 792.627 537.362L800.645 558.361C797.59 560.525 793.93 562.146 789.664 563.226C785.403 564.31 780.982 564.852 776.4 564.852ZM722.185 485.819V462.911H793.391V485.819H722.185Z" fill="white" />
            <path d="M273.026 491.34L281.281 491.371L288.13 506.696L273.026 506.681V491.34Z" fill="#02C8FF" />
            <defs>
                <linearGradient id="paint0_linear_2_29" x1="280.785" y1="512.584" x2="68.3785" y2="486.28" gradientUnits="userSpaceOnUse">
                    <stop stop-color="#02C8FF" />
                    <stop offset="1" stop-color="#F944FF" />
                </linearGradient>
            </defs>
        </svg>